# xmcd
# 
# Track frame offsets:
#     150
#     30960
#     50030
#     78002
#     92782
#     140360
#     167067
# 
# Disc length: 2557
# 
# Revision: 25
# Processed by: cddbd v1.5.2PL0 Copyright (c) Steve Scherf et al.
# Submitted via: BonkEnc v1.0.15
# 
DISCID=4c09fb07
DTITLE=Led Zeppelin y - In through the Out Door
DYEAR=1979
DGENRE=Rock
TTITLE0=In the Evening
TTITLE1=South Bound Saurez
TTITLE2=Fool in the Rain
TTITLE3=Hot Dog
TTITLE4=Carouselambra
TTITLE5=All My Love
TTITLE6=I'm Gonna Crawl
EXTD=YEAR: 1979
EXTT0=
EXTT1=
EXTT2=
EXTT3=
EXTT4=
EXTT5=
EXTT6=
PLAYORDER=
